<?xml version="1.0" standalone="no"?><!DOCTYPE svg PUBLIC "-//W3C//DTD SVG 1.1//EN" "http://www.w3.org/Graphics/SVG/1.1/DTD/svg11.dtd"><svg t="1725443463636" class="icon" viewBox="0 0 1024 1024" version="1.1" xmlns="http://www.w3.org/2000/svg" p-id="1239" xmlns:xlink="http://www.w3.org/1999/xlink" width="256" height="256"><path d="M68.5056 171.2128m147.6096 0l598.272 0q147.6096 0 147.6096 147.6096l0 449.5872q0 147.6096-147.6096 147.6096l-598.272 0q-147.6096 0-147.6096-147.6096l0-449.5872q0-147.6096 147.6096-147.6096Z" fill="#CE6302" p-id="1240"></path><path d="M68.5056 171.2128m147.6096 0l562.0224 0q147.6096 0 147.6096 147.6096l0 449.5872q0 147.6096-147.6096 147.6096l-562.0224 0q-147.6096 0-147.6096-147.6096l0-449.5872q0-147.6096 147.6096-147.6096Z" fill="#F68604" p-id="1241"></path><path d="M68.5056 355.5328h857.2416v81.4592H68.5056z" fill="#DB6800" p-id="1242"></path><path d="M816.5376 134.0928H213.9136c-80.3328 0-145.408 72.704-145.408 162.3552v101.632h893.4912V296.448c0-89.6512-65.1264-162.3552-145.4592-162.3552z" fill="#0385DD" p-id="1243"></path><path d="M786.176 171.2128H208.0256a139.52 139.52 0 0 0-139.52 139.52v87.3472H925.696V310.7328a139.52 139.52 0 0 0-139.52-139.52z" fill="#249CFF" p-id="1244"></path><path d="M457.5744 802.9696c-1.6896 0-3.3792 0-5.12-0.256a50.1248 50.1248 0 0 1-34.304-19.3536l-75.7248-98.4576a39.8848 39.8848 0 1 1 63.2832-48.5888l56.32 73.472 174.08-150.0672a39.8848 39.8848 0 1 1 52.0704 60.4672l-198.0928 170.7008a50.0224 50.0224 0 0 1-32.512 12.0832z" fill="#DD6E00" p-id="1245"></path><path d="M457.5744 762.88c-1.6896 0-3.3792 0-5.12-0.256a50.1248 50.1248 0 0 1-34.4064-19.2l-75.6224-98.6112a39.8848 39.8848 0 1 1 63.2832-48.5888l56.32 73.472 174.08-150.0672a39.8848 39.8848 0 1 1 52.0704 60.4672l-198.0928 170.7008a50.0224 50.0224 0 0 1-32.512 12.0832z" fill="#FFFFFF" p-id="1246"></path><path d="M317.952 317.44c-33.5872 0-60.7744-24.4736-60.7744-54.6304V154.3168c0-30.1568 27.1872-54.5792 60.7744-54.5792S378.88 124.16 378.88 154.3168v108.6464C378.88 293.12 351.5392 317.44 317.952 317.44zM706.1504 317.44c-33.5872 0-60.7744-24.4736-60.7744-54.6304V154.3168c0-30.1568 27.1872-54.5792 60.7744-54.5792s60.7744 24.4224 60.7744 54.5792v108.6464c0 30.1568-27.1872 54.4768-60.7744 54.4768z" fill="#FF9100" p-id="1247"></path><path d="M307.2 317.44a49.8688 49.8688 0 0 1-49.8688-49.8688V168.5504a49.8688 49.8688 0 1 1 99.6864 0v99.1744A49.8688 49.8688 0 0 1 307.2 317.44zM695.2448 317.44a49.8688 49.8688 0 0 1-49.8688-49.8688V168.5504a49.8688 49.8688 0 1 1 99.6864 0v99.1744a49.8688 49.8688 0 0 1-49.8176 49.7152z" fill="#FFD62C" p-id="1248"></path></svg>